# xmcd
#
# Track frame offsets: 
#        150
#        15675
#        31125
#        47850
#        63150
#        75900
#        89625
#        102975
#        116175
#        128175
#        140775
#        154500
#        169425
#        181875
#        194475
#        207225
#        219750
#        232275
#        244725
#        257400
#        270900
#        283575
#        296475
#        308925
#        321225
#        334050
#
# Disc length: 4621 seconds
#
# Revision: 0
# Processed by: cddbd v1.5.2PL0 Copyright (c) Steve Scherf et al.
# Submitted via: ExactAudioCopy v1.0b3
#
DISCID=7f120b1a
DTITLE=Monkey Joe (Jesse Coleman) - Complete Recorded Works, Vol.1
DYEAR=1996
DGENRE=Blues
TTITLE0=Sweet Patunia Stomp
TTITLE1=Gonna Beat It Back To Memphis, Tennessee
TTITLE2=Monkey Joe Got The Blues
TTITLE3=Hard Time Blues
TTITLE4=Ever Dream You Was Lucky
TTITLE5=Three O'Clock Blues (take 1)
TTITLE6=Three O'Clock Blues (take 2)
TTITLE7=O.K. With Me Baby
TTITLE8=Hair Parted In The Middle
TTITLE9=I Knocked Upon Your Door
TTITLE10=Some Sweet Day
TTITLE11=Blues For Six Nights
TTITLE12=Honey Bee
TTITLE13=Baby Can I Holler
TTITLE14=Everybody Do The Shag
TTITLE15=Taxes On My Pole
TTITLE16=Must I Break 'Em On Down
TTITLE17=Just Out The Big House
TTITLE18=Preach, Pray And Moan
TTITLE19=New York Central
TTITLE20=Rabbit Foot Blues
TTITLE21=Wise To The Jive
TTITLE22=I Was Laying 'Em Down
TTITLE23=Tailor Made Woman
TTITLE24=Trouble Comin' On
TTITLE25=Good Business No. 2
EXTD=
EXTT0=
EXTT1=
EXTT2=
EXTT3=
EXTT4=
EXTT5=
EXTT6=
EXTT7=
EXTT8=
EXTT9=
EXTT10=
EXTT11=
EXTT12=
EXTT13=
EXTT14=
EXTT15=
EXTT16=
EXTT17=
EXTT18=
EXTT19=
EXTT20=
EXTT21=
EXTT22=
EXTT23=
EXTT24=
EXTT25=
PLAYORDER=
